<?xml version="1.0" encoding="UTF-8" standalone="no"?>
<!-- Created with Inkscape (http://www.inkscape.org/) -->

<svg
   xmlns:dc="http://purl.org/dc/elements/1.1/"
   xmlns:cc="http://creativecommons.org/ns#"
   xmlns:rdf="http://www.w3.org/1999/02/22-rdf-syntax-ns#"
   xmlns:svg="http://www.w3.org/2000/svg"
   xmlns="http://www.w3.org/2000/svg"
   xmlns:sodipodi="http://sodipodi.sourceforge.net/DTD/sodipodi-0.dtd"
   xmlns:inkscape="http://www.inkscape.org/namespaces/inkscape"
   width="102"
   height="234"
   viewBox="0 0 26.987499 61.912502"
   version="1.1"
   id="svg21151"
   inkscape:version="0.92.4 (5da689c313, 2019-01-14)"
   sodipodi:docname="body.svg">
  <defs
     id="defs21145" />
  <sodipodi:namedview
     id="base"
     pagecolor="#ffffff"
     bordercolor="#666666"
     borderopacity="1.0"
     inkscape:pageopacity="0.0"
     inkscape:pageshadow="2"
     inkscape:zoom="1.1484375"
     inkscape:cx="103.07483"
     inkscape:cy="316.19048"
     inkscape:document-units="mm"
     inkscape:current-layer="layer1"
     showgrid="false"
     units="px"
     inkscape:window-width="1920"
     inkscape:window-height="1013"
     inkscape:window-x="-9"
     inkscape:window-y="-9"
     inkscape:window-maximized="1" />
  <metadata
     id="metadata21148">
    <rdf:RDF>
      <cc:Work
         rdf:about="">
        <dc:format>image/svg+xml</dc:format>
        <dc:type
           rdf:resource="http://purl.org/dc/dcmitype/StillImage" />
        <dc:title></dc:title>
      </cc:Work>
    </rdf:RDF>
  </metadata>
  <g
     inkscape:label="Layer 1"
     inkscape:groupmode="layer"
     id="layer1"
     transform="translate(0,-235.08748)">
    <path
       inkscape:connector-curvature="0"
       id="path3616"
       style="fill:#f8a578;fill-opacity:1;fill-rule:nonzero;stroke:none;stroke-width:0.03527778"
       d="m 26.683106,266.18364 c -0.27326,-0.19086 -0.605083,-0.39547 -1.187872,-1.10314 -0.348509,-0.42333 -0.831779,-0.71931 -1.340944,-0.9151 -0.09331,-0.0356 -0.18923,-0.0688 -0.27051,-0.12665 -0.167181,-0.11924 -0.195156,-0.36618 -0.24077,-0.55316 -0.04519,-0.1845 -0.08047,-0.37218 -0.13007,-0.55562 -0.100471,-0.37042 -0.190852,-0.95885 -0.190852,-1.9431 0,-2.33257 -0.479425,-4.34552 -0.735048,-4.8888 -0.255623,-0.54292 -0.415361,-0.95849 -0.713564,-3.16335 -0.298203,-2.20486 0.27686,-1.84256 0,-4.50533 -0.276966,-2.66277 -2.321842,-3.13125 -3.237971,-3.34433 -0.915987,-0.21308 -2.790542,-0.98531 -3.152668,-1.26224 -0.178753,-0.13653 -0.206975,-0.8315 -0.18976,-1.50072 0.279612,-0.42968 0.42471,-0.99659 0.526274,-1.49225 0.0441,0.0561 0.135855,0.15981 0.218969,0.16581 0.113948,0.009 0.280564,-0.35066 0.333058,-0.54328 0.05267,-0.19297 0.122802,-0.85055 0.04396,-1.09608 -0.07895,-0.24553 -0.263066,-0.0526 -0.32452,0.0437 -0.02233,0.0353 -0.06833,0.0681 -0.117546,0.0956 0.01722,-0.32456 0.03348,-0.64911 0.08061,-0.97155 0.0926,-0.63535 0.05031,-1.24636 -0.164924,-1.85879 -0.454346,-1.29293 -2.22776,-1.38288 -2.473858,-1.38923 v 0 h -2.91e-4 -2.91e-4 v 0 c -0.246133,0.006 -2.019653,0.0963 -2.473995,1.38923 -0.215265,0.61243 -0.257563,1.22344 -0.164818,1.85879 0.04699,0.32244 0.06325,0.64699 0.08047,0.97155 -0.04918,-0.0275 -0.09521,-0.0603 -0.117546,-0.0956 -0.06145,-0.0963 -0.245569,-0.28928 -0.324379,-0.0437 -0.07895,0.24553 -0.0088,0.90311 0.04382,1.09608 0.05253,0.19262 0.21911,0.55245 0.333092,0.54328 0.08308,-0.006 0.174873,-0.10972 0.21897,-0.16581 0.101564,0.49566 0.246662,1.06257 0.526274,1.49225 0.01722,0.66922 -0.01118,1.36419 -0.18976,1.50072 -0.36202,0.27693 -2.2367163,1.04916 -3.1526693,1.26224 -0.915987,0.21308 -2.961004,0.68156 -3.237864,3.34433 -0.276966,2.66277 0.298202,2.30047 0,4.50533 -0.298345,2.20486 -0.458047,2.62043 -0.71367,3.16335 -0.255623,0.54328 -0.735051,2.55623 -0.735051,4.8888 0,0.98425 -0.0904,1.57268 -0.190722,1.9431 -0.04975,0.18344 -0.08502,0.37112 -0.130087,0.55562 -0.04561,0.18698 -0.07372,0.43392 -0.24088,0.55316 -0.08131,0.0579 -0.177215,0.091 -0.270373,0.12665 -0.509323,0.19579 -0.992463,0.49177 -1.341106,0.9151 -0.58263301,0.70767 -0.91460401,0.91228 -1.18786801,1.10314 -0.273403,0.1912 -0.183968,0.67627 0.44042,0.53446 0.62452601,-0.14182 1.03738901,-0.93381 1.19117601,-0.88689 0.15379,0.0466 -0.1706,1.21991 -0.299583,1.61572 -0.128848,0.39582 -0.2537,0.87101 -0.335968,1.11302 -0.08213,0.24201 -0.17252901,0.68827 0.01075,0.93557 0.183141,0.24729 0.443865,-0.0716 0.624251,-0.70803 0.180524,-0.63641 0.551628,-1.77236 0.551628,-1.77236 0,0 -0.204636,0.95885 -0.355258,1.53953 -0.150756,0.58067 -0.540466,1.32327 -0.207807,1.60302 0.175285,0.14746 0.382542,-0.0402 0.498849,-0.32067 0.117687,-0.28364 0.262929,-0.75601 0.27354,-0.80187 0.109831,-0.47378 0.433945,-1.77729 0.433945,-1.77729 0,0 -0.209324,1.09255 -0.332383,1.61078 -0.06876,0.28963 -0.230131,0.6664 -0.229444,0.90029 4.24e-4,0.18415 0.143729,0.30868 0.336243,0.25118 0.171842,-0.0512 0.324528,-0.4378 0.425263,-0.84773 0.103213,-0.4198 0.258382,-1.18286 0.352087,-1.54234 0.03554,-0.13617 0.09523,-0.27094 0.09121,-0.16863 -0.0085,0.22154 -0.180506,0.82726 -0.236594,1.12995 -0.07097,0.38417 -0.05788,0.65511 0.122922,0.67768 0.113672,0.0138 0.213473,-0.0148 0.310733,-0.18309 0.11176,-0.19332 0.222286,-0.70203 0.302366,-1.06116 0.129399,-0.58208 0.307693,-1.1176 0.382658,-1.64076 0.07496,-0.52282 0.183303,-1.59139 0.263913,-1.94169 0.0806,-0.34996 0.245422,-0.80716 0.245422,-0.80716 l -0.01143,-0.001 c 0.317359,-0.98389 1.083416,-3.34821 1.579774,-4.78754 0.638986,-1.8535 0.415325,-2.49238 0.511245,-3.29107 0.06216,-0.51858 0.60826,-1.8168 1.00196,-3.20604 0.595877,1.24813 1.208405,3.08645 0.841163,4.89938 -0.645054,3.18523 -0.443442,2.25777 -0.645054,3.18523 -0.222426,1.02235 -0.44704,2.02565 -0.54804,3.07128 -0.225602,2.33609 -0.401144,4.70182 -0.0303,7.01428 0.13529,0.84349 0.625898,5.72735 0.595171,5.89668 -0.115782,0.63641 -0.491843,1.96709 -0.636517,2.71886 -0.144568,0.75212 -0.07098,1.88031 -0.01309,3.93417 0.05772,2.05388 0.31817,3.64455 0.404848,4.77274 0.07454,0.96837 -0.06766,3.44416 -0.109538,4.12573 -0.0073,0.11994 -0.02935,0.23636 -0.0678,0.35031 -0.08407,0.24977 -0.214559,0.60078 -0.372639,0.90487 -0.281516,0.54116 -0.931121,1.55893 -1.147621,1.77518 -0.2165,0.21661 -0.565538,0.73907 -0.238125,0.88794 0.114935,0.0522 0.173214,0.002 0.173214,0.002 -0.04325,0.17075 0.03196,0.35066 0.135325,0.40076 0.08393,0.0406 0.189477,0.0296 0.189477,0.0296 0.0095,0.13264 0.162349,0.3817 0.487151,0.29245 0,0 0.08227,0.28998 0.333763,0.30304 0.08336,0.004 0.165065,0.001 0.242676,-0.0296 0.07108,-0.0286 0.149507,-0.11007 0.234809,-0.31151 0,0 -0.06435,0.26 0.255058,0.38453 0.319299,0.12418 0.698253,-0.0219 0.893128,-0.43321 0.194839,-0.41134 0.173214,-0.48719 0.335527,-0.8442 0.162489,-0.35736 0.08657,-1.28834 0.205775,-1.66722 0.119062,-0.37889 0.4654903,-0.50871 0.4978753,-0.82268 0.01955,-0.18839 0.02688,-0.54822 -0.01683,-0.88795 l 0.02261,-1.41605 0.04078,-0.63076 c 0.06325,-0.97543 0.183692,-1.94557 0.367101,-2.90583 0.307869,-1.61149 0.73533,-4.28167 0.86487,-5.90056 0.173637,-2.16958 0.376061,-3.99168 0.491666,-4.33881 l 0.02152,-0.0653 c 0.430918,-1.32751 0.736706,-2.69558 0.893515,-4.082 0.04946,-0.4385 0.09536,-0.92216 0.131198,-1.4418 0.157374,-2.28141 0.08569,-3.52284 0.493889,-3.58246 0.408023,0.0596 0.336374,1.30105 0.493748,3.58246 0.03581,0.51964 0.08156,1.0033 0.131198,1.4418 0.15681,1.38642 0.462739,2.75449 0.893656,4.082 l 0.02134,0.0653 c 0.115606,0.34713 0.318065,2.16923 0.491702,4.33881 0.129505,1.61889 0.557142,4.28907 0.864835,5.90056 0.183409,0.96026 0.303742,1.9304 0.366994,2.90583 l 0.04092,0.63076 0.02244,1.41605 c -0.04353,0.33973 -0.03623,0.69956 -0.01665,0.88795 0.03253,0.31397 0.378813,0.44379 0.498016,0.82268 0.119063,0.37888 0.04329,1.30986 0.205599,1.66722 0.16249,0.35701 0.140688,0.43286 0.335563,0.8442 0.194839,0.41134 0.573793,0.55739 0.893092,0.43321 0.31944,-0.12453 0.255235,-0.38453 0.255235,-0.38453 0.0853,0.20144 0.163547,0.28293 0.234667,0.31151 0.07758,0.0307 0.159315,0.0339 0.242817,0.0296 0.251354,-0.013 0.333622,-0.30304 0.333622,-0.30304 0.324803,0.0892 0.477767,-0.15981 0.487116,-0.29245 0,0 0.105586,0.0109 0.189477,-0.0296 0.103363,-0.0501 0.178611,-0.23001 0.135325,-0.40076 0,0 0.05831,0.0497 0.173249,-0.002 0.327413,-0.14887 -0.02166,-0.67133 -0.238125,-0.88794 -0.216499,-0.21625 -0.866104,-1.23402 -1.147656,-1.77518 -0.158045,-0.30409 -0.288537,-0.6551 -0.372604,-0.90487 -0.03845,-0.11395 -0.0605,-0.23037 -0.0678,-0.35031 -0.04177,-0.68157 -0.184115,-3.15736 -0.109573,-4.12573 0.08668,-1.12819 0.347134,-2.71886 0.405024,-4.77274 0.05775,-2.05386 0.13134,-3.18205 -0.01323,-3.93417 -0.144709,-0.75177 -0.52077,-2.08245 -0.636517,-2.71886 -0.03073,-0.16933 0.459846,-5.05319 0.595031,-5.89668 0.370981,-2.31246 0.195403,-4.67819 -0.03016,-7.01428 -0.101036,-1.04563 -0.32579,-2.04893 -0.54804,-3.07128 -0.201613,-0.92746 0,0 -0.64509,-3.18523 -0.367241,-1.81293 0.245287,-3.65125 0.841305,-4.89938 0.393559,1.38924 0.939694,2.68746 1.001818,3.20604 0.09592,0.79869 -0.127741,1.43757 0.511281,3.29107 0.496499,1.43933 1.262415,3.80365 1.579915,4.78754 l -0.01143,0.001 c 0,0 0.164677,0.4572 0.245286,0.80716 0.08061,0.3503 0.188772,1.41887 0.263878,1.94169 0.07497,0.52316 0.253295,1.05868 0.382835,1.64076 0.07976,0.35913 0.190429,0.86784 0.302189,1.06116 0.0973,0.16828 0.197062,0.19685 0.310762,0.18309 0.180799,-0.0226 0.193887,-0.29351 0.122908,-0.67768 -0.05609,-0.30269 -0.228071,-0.90841 -0.236608,-1.12995 -0.004,-0.10231 0.05567,0.0325 0.09123,0.16863 0.0937,0.35948 0.248885,1.12254 0.352072,1.54234 0.100754,0.40993 0.253436,0.79657 0.425274,0.84773 0.192511,0.0575 0.335986,-0.067 0.336232,-0.25118 7.15e-4,-0.23389 -0.160514,-0.61066 -0.229411,-0.90029 -0.123084,-0.51823 -0.332387,-1.61078 -0.332387,-1.61078 0,0 0.324097,1.30351 0.433917,1.77729 0.01062,0.0459 0.155998,0.51823 0.273543,0.80187 0.11617,0.28045 0.323568,0.46813 0.498863,0.32067 0.33267,-0.27975 -0.05704,-1.02235 -0.207821,-1.60302 -0.150601,-0.58068 -0.355247,-1.53953 -0.355247,-1.53953 0,0 0.371122,1.13595 0.551638,1.77236 0.180376,0.63641 0.441114,0.95532 0.624241,0.70803 0.183268,-0.2473 0.09289,-0.69356 0.01076,-0.93557 -0.08213,-0.24201 -0.207116,-0.7172 -0.335985,-1.11302 -0.128976,-0.39581 -0.453355,-1.56915 -0.299579,-1.61572 0.153775,-0.0469 0.566667,0.74507 1.191189,0.88689 0.624383,0.14181 0.713812,-0.34326 0.440407,-0.53446" />
  </g>
</svg>
