<?xml version="1.0" encoding="UTF-8" standalone="no"?>
<!-- Created with Inkscape (http://www.inkscape.org/) -->

<svg xmlns:dc="http://purl.org/dc/elements/1.1/" xmlns:cc="http://creativecommons.org/ns#" xmlns:rdf="http://www.w3.org/1999/02/22-rdf-syntax-ns#" xmlns:svg="http://www.w3.org/2000/svg" xmlns="http://www.w3.org/2000/svg" xmlns:sodipodi="http://sodipodi.sourceforge.net/DTD/sodipodi-0.dtd" xmlns:inkscape="http://www.inkscape.org/namespaces/inkscape" width="89" height="234" viewBox="0 0 23.547916 61.912502" version="1.1" id="svg65679" sodipodi:docname="hairs-nails.svg" inkscape:version="0.92.4 (5da689c313, 2019-01-14)">
  <defs id="defs65673" />
  <sodipodi:namedview id="base" pagecolor="#ffffff" bordercolor="#666666" borderopacity="1.0" inkscape:pageopacity="0.0" inkscape:pageshadow="2" inkscape:zoom="3.8306189" inkscape:cx="43.921769" inkscape:cy="79.659864" inkscape:document-units="px" inkscape:current-layer="layer1" showgrid="false" units="px" />
  <metadata id="metadata65676">
    <rdf:RDF>
      <cc:Work rdf:about="">
        <dc:format>image/svg+xml</dc:format>
        <dc:type rdf:resource="http://purl.org/dc/dcmitype/StillImage" />
        <dc:title></dc:title>
      </cc:Work>
    </rdf:RDF>
  </metadata>
  <g inkscape:label="Layer 1" inkscape:groupmode="layer" id="layer1" transform="translate(0,-235.08748)">
    <path id="path3570" style="fill:#2d292a;stroke-width:0.03527778" d="m 13.06936,235.38652 c -0.472723,-0.15275 -0.918634,-0.21907 -1.333853,-0.22577 -0.41522,0.007 -0.861484,0.073 -1.334206,0.22577 -1.876073,0.60643 -1.682751,1.43158 -1.64959,2.25637 0.03387,0.8449 0.173567,1.5173 0.255411,1.84785 0.0078,0.0317 0.0078,0.0642 0.01446,0.0963 0.141817,0.31397 0.214842,0.66075 0.221897,1.00965 0.107245,0.0162 0.267053,-0.16545 0.255413,-0.29386 -0.01905,-0.20744 -0.06738,-0.48049 -0.106539,-0.9906 -0.01658,-0.21379 0.03528,-0.6089 0.05327,-1.02094 0.04868,-1.09996 0.243064,-1.10137 1.004359,-1.28552 0.419805,-0.1016 0.786341,-0.0469 1.039283,0.0921 0.07691,0.0423 0.161219,0.0656 0.246239,0.072 0.08467,-0.006 0.16898,-0.0296 0.245886,-0.072 0.252942,-0.139 0.619478,-0.19368 1.039636,-0.0921 0.760942,0.18415 0.955322,0.18556 1.004006,1.28552 0.01799,0.41204 0.06985,0.80715 0.05362,1.02094 -0.03951,0.51011 -0.08784,0.78316 -0.106539,0.9906 -0.01164,0.12841 0.147814,0.31009 0.255058,0.29386 0.0071,-0.3489 0.08043,-0.69568 0.221898,-1.00965 0.0067,-0.0321 0.0067,-0.0646 0.01446,-0.0963 0.08184,-0.33055 0.221897,-1.00295 0.255762,-1.84785 0.03281,-0.82479 0.226132,-1.64994 -1.64994,-2.25637" inkscape:connector-curvature="0" />
    <path id="path3592" style="fill:#f5d5cd;stroke-width:0.03527778" d="m 6.344355,296.81501 c 0,0 0.258587,0.28117 0.633237,0.12136 0,0 0.05045,-0.19297 -0.230717,-0.248 -0.356658,-0.0699 -0.40252,0.12664 -0.40252,0.12664" inkscape:connector-curvature="0" />
    <path id="path3594" style="fill:#f5d5cd;stroke-width:0.03527778" d="m 5.583767,296.83089 c 0,0 0.125236,0.29527 0.430036,0.10548 0,0 0.09137,-0.16792 -0.182034,-0.23142 -0.227541,-0.0526 -0.248002,0.12594 -0.248002,0.12594" inkscape:connector-curvature="0" />
    <path id="path3596" style="fill:#f5d5cd;stroke-width:0.03527778" d="m 5.049308,296.57477 c 0,0 0.103011,0.24412 0.354895,0.0871 0,0 0.07549,-0.139 -0.150284,-0.19121 -0.18803,-0.0434 -0.204611,0.10407 -0.204611,0.10407" inkscape:connector-curvature="0" />
    <path id="path3598" style="fill:#f5d5cd;stroke-width:0.03527778" d="m 4.674658,296.26327 c 0,0 0.06526,0.22895 0.307622,0.11677 0,0 0.08255,-0.11571 -0.113241,-0.18733 -0.163336,-0.0593 -0.194381,0.0706 -0.194381,0.0706" inkscape:connector-curvature="0" />
    <path id="path3600" style="fill:#f5d5cd;stroke-width:0.03527778" d="m 4.383969,295.8925 c 0,0 0.09137,0.18027 0.247298,0.0988 0,0 0.02681,-0.0878 -0.09102,-0.14394 -0.09772,-0.0466 -0.156281,0.0452 -0.156281,0.0452" inkscape:connector-curvature="0" />
    <path id="path3602" style="fill:#f5d5cd;stroke-width:0.03527778" d="m 17.160171,296.81501 c 0,0 -0.258233,0.28117 -0.633236,0.12136 0,0 -0.05009,-0.19297 0.230717,-0.248 0.356658,-0.0699 0.402519,0.12664 0.402519,0.12664" inkscape:connector-curvature="0" />
    <path id="path3604" style="fill:#f5d5cd;stroke-width:0.03527778" d="m 17.92076,296.83089 c 0,0 -0.124883,0.29527 -0.429683,0.10548 0,0 -0.09172,-0.16792 0.182033,-0.23142 0.227542,-0.0526 0.24765,0.12594 0.24765,0.12594" inkscape:connector-curvature="0" />
    <path id="path3606" style="fill:#f5d5cd;stroke-width:0.03527778" d="m 18.455571,296.57477 c 0,0 -0.103364,0.24412 -0.355247,0.0871 0,0 -0.0755,-0.139 0.150636,-0.19121 0.188031,-0.0434 0.204611,0.10407 0.204611,0.10407" inkscape:connector-curvature="0" />
    <path id="path3608" style="fill:#f5d5cd;stroke-width:0.03527778" d="m 18.829868,296.26327 c 0,0 -0.06526,0.22895 -0.307269,0.11677 0,0 -0.0829,-0.11571 0.113242,-0.18733 0.162983,-0.0593 0.194027,0.0706 0.194027,0.0706" inkscape:connector-curvature="0" />
    <path id="path3610" style="fill:#f5d5cd;stroke-width:0.03527778" d="m 19.120557,295.8925 c 0,0 -0.09137,0.18027 -0.247297,0.0988 0,0 -0.02681,-0.0878 0.09102,-0.14394 0.09807,-0.0466 0.15628,0.0452 0.15628,0.0452" inkscape:connector-curvature="0" />
  </g>
</svg>
