<?xml version="1.0" encoding="UTF-8" standalone="no"?>
<!-- Created with Inkscape (http://www.inkscape.org/) -->

<svg xmlns:dc="http://purl.org/dc/elements/1.1/" xmlns:cc="http://creativecommons.org/ns#" xmlns:rdf="http://www.w3.org/1999/02/22-rdf-syntax-ns#" xmlns:svg="http://www.w3.org/2000/svg" xmlns="http://www.w3.org/2000/svg" xmlns:sodipodi="http://sodipodi.sourceforge.net/DTD/sodipodi-0.dtd" xmlns:inkscape="http://www.inkscape.org/namespaces/inkscape" width="36" height="63" viewBox="0 0 9.5249998 16.66875" version="1.1" id="svg78822" inkscape:version="0.92.4 (5da689c313, 2019-01-14)" sodipodi:docname="respiratory.svg">
  <defs id="defs78816">
    <clipPath id="clipPath3546" clipPathUnits="userSpaceOnUse">
      <path id="path3544" d="m 3706.21,1952.15 c 1.14,-0.97 1.59,-2.57 1.47,-4.06 -0.12,-1.49 -0.74,-2.89 -1.42,-4.21 -1.08,-2.1 -2.35,-4.1 -3.76,-5.99 -1.37,-1.85 -3.01,-3.68 -5.21,-4.37 -2.2,-0.68 -5.05,0.27 -5.68,2.48 l -0.44,2.62 -2.06,1.06 -0.62,-0.76 c -1.73,-2.82 -5.21,-4.35 -8.5,-4.04 -3.3,0.31 -6.31,2.34 -8.11,5.12 -1.81,2.77 -2.45,6.21 -2.1,9.5 0.2,1.88 0.71,3.73 0.74,5.63 0.03,1.54 -0.27,3.07 -0.41,4.61 -0.17,1.73 -0.14,3.48 -0.1,5.22 0.07,3.84 0.13,7.68 0.2,11.52 2.3,0.62 4.59,1.23 6.88,1.84 1.61,0.43 3.53,0.79 4.75,-0.34 l 1.19,-2.25 c 1.41,-4.04 3.47,-7.86 6.1,-11.25 1.09,-1.41 2.33,-2.79 3.97,-3.53 1.18,-0.54 2.52,-0.71 3.64,-1.37 2.23,-1.29 3.14,-4.17 5.34,-5.5 1.31,-0.79 2.97,-0.95 4.13,-1.93 z" inkscape:connector-curvature="0" />
    </clipPath>
    <radialGradient id="radialGradient3554" spreadMethod="pad" gradientTransform="matrix(38.193,0,0,-38.193,3671.51,1978.4)" gradientUnits="userSpaceOnUse" r="1" cy="0" cx="0" fy="0" fx="0">
      <stop id="stop3548" offset="0" style="stop-opacity:1;stop-color:#f78f84" />
      <stop id="stop3550" offset="0.668449" style="stop-opacity:1;stop-color:#f5796b" />
      <stop id="stop3552" offset="1" style="stop-opacity:1;stop-color:#f46c5e" />
    </radialGradient>
    <clipPath id="clipPath3528" clipPathUnits="userSpaceOnUse">
      <path id="path3526" d="m 3672.13,1987.65 c 1.28,-1.74 0.39,-4.26 1.11,-6.29 0.64,-1.78 2.62,-2.96 4.49,-2.67 1.4,0.22 2.57,1.13 3.68,2.01 2.28,1.83 4.67,3.79 5.69,6.53 0.38,1.01 0.56,2.11 1.18,2.99 1.3,1.86 3.91,2.06 6.16,2.34 2.19,0.28 4.34,0.81 6.4,1.57 l 1.73,1.14 -0.44,2.91 -2.32,2.12 c -2.59,2.5 -3.05,6.62 -5.62,9.14 -2.59,2.53 -6.58,2.79 -10.2,2.87 -1.38,0.03 -2.78,0.05 -4.07,0.54 -1.68,0.64 -3.3,2.06 -5.03,1.56 -1.44,-0.41 -2.2,-2.05 -2.28,-3.55 -0.08,-1.5 0.32,-2.99 0.33,-4.49 0.01,-2.05 -0.73,-4.02 -1.27,-6 -0.81,-2.96 -1.21,-6.02 -1.18,-9.09 l 0.48,-2.29 z" inkscape:connector-curvature="0" />
    </clipPath>
    <radialGradient id="radialGradient3536" spreadMethod="pad" gradientTransform="matrix(38.192,0,0,-38.192,3671.51,1978.4)" gradientUnits="userSpaceOnUse" r="1" cy="0" cx="0" fy="0" fx="0">
      <stop id="stop3530" offset="0" style="stop-opacity:1;stop-color:#f78f84" />
      <stop id="stop3532" offset="0.668449" style="stop-opacity:1;stop-color:#f5796b" />
      <stop id="stop3534" offset="1" style="stop-opacity:1;stop-color:#f46c5e" />
    </radialGradient>
    <clipPath id="clipPath3510" clipPathUnits="userSpaceOnUse">
      <path id="path3508" d="m 3632.72,1952.15 c -1.14,-0.97 -1.59,-2.57 -1.47,-4.06 0.12,-1.49 0.74,-2.89 1.42,-4.21 1.08,-2.1 2.35,-4.1 3.76,-5.99 1.38,-1.85 3.01,-3.68 5.21,-4.37 2.2,-0.68 5.05,0.27 5.68,2.48 l 0.44,2.62 2.06,1.06 0.62,-0.76 c 1.73,-2.82 5.21,-4.35 8.51,-4.04 3.29,0.31 6.3,2.34 8.11,5.12 1.8,2.77 2.44,6.21 2.09,9.5 -0.2,1.88 -0.71,3.73 -0.74,5.63 -0.03,1.54 0.27,3.07 0.42,4.61 0.16,1.73 0.13,3.48 0.1,5.22 -0.07,3.84 -0.14,7.68 -0.21,11.52 -2.3,0.62 -4.59,1.23 -6.88,1.84 -1.6,0.43 -3.53,0.79 -4.75,-0.34 l -1.19,-2.25 c -1.41,-4.04 -3.47,-7.86 -6.09,-11.25 -1.1,-1.41 -2.34,-2.79 -3.97,-3.53 -1.19,-0.54 -2.53,-0.71 -3.65,-1.37 -2.22,-1.29 -3.13,-4.17 -5.34,-5.5 -1.31,-0.79 -2.96,-0.95 -4.13,-1.93 z" inkscape:connector-curvature="0" />
    </clipPath>
    <radialGradient id="radialGradient3518" spreadMethod="pad" gradientTransform="matrix(38.1931,0,0,-38.1931,3671.51,1978.4)" gradientUnits="userSpaceOnUse" r="1" cy="0" cx="0" fy="0" fx="0">
      <stop id="stop3512" offset="0" style="stop-opacity:1;stop-color:#f78f84" />
      <stop id="stop3514" offset="0.668449" style="stop-opacity:1;stop-color:#f5796b" />
      <stop id="stop3516" offset="1" style="stop-opacity:1;stop-color:#f46c5e" />
    </radialGradient>
    <clipPath id="clipPath3492" clipPathUnits="userSpaceOnUse">
      <path id="path3490" d="m 3666.81,1987.65 c -1.29,-1.74 -0.4,-4.26 -1.12,-6.29 -0.63,-1.78 -2.62,-2.96 -4.49,-2.67 -1.4,0.22 -2.57,1.13 -3.67,2.01 -2.29,1.83 -4.68,3.79 -5.7,6.53 -0.37,1.01 -0.56,2.11 -1.18,2.99 -1.3,1.86 -3.91,2.06 -6.16,2.34 -2.18,0.28 -4.33,0.81 -6.39,1.57 l -1.73,1.14 0.43,2.91 2.33,2.12 c 2.58,2.5 3.05,6.62 5.62,9.14 2.58,2.53 6.57,2.79 10.2,2.87 1.37,0.03 2.77,0.05 4.06,0.54 1.68,0.64 3.3,2.06 5.03,1.56 1.44,-0.41 2.2,-2.05 2.28,-3.55 0.08,-1.5 -0.32,-2.99 -0.33,-4.49 0,-2.05 0.73,-4.02 1.27,-6 0.81,-2.96 1.21,-6.02 1.18,-9.09 l -0.48,-2.29 z" inkscape:connector-curvature="0" />
    </clipPath>
    <radialGradient id="radialGradient3500" spreadMethod="pad" gradientTransform="matrix(38.1931,0,0,-38.1931,3671.51,1978.4)" gradientUnits="userSpaceOnUse" r="1" cy="0" cx="0" fy="0" fx="0">
      <stop id="stop3494" offset="0" style="stop-opacity:1;stop-color:#f78f84" />
      <stop id="stop3496" offset="0.668449" style="stop-opacity:1;stop-color:#f5796b" />
      <stop id="stop3498" offset="1" style="stop-opacity:1;stop-color:#f46c5e" />
    </radialGradient>
    <clipPath id="clipPath3444" clipPathUnits="userSpaceOnUse">
      <path id="path3442" d="m 3704.34,1556.85 c -10.57,5.27 -15,17.37 -15.53,28.52 -0.53,11.15 1.88,22.34 0.72,33.44 -1.43,13.66 -8.19,26.58 -8.63,40.3 -0.57,17.84 9.58,34.66 10.31,52.5 0.44,10.6 -2.26,22.14 3.72,31.17 6.61,9.99 22.27,12.39 33.57,7.2 8.01,-3.67 14.01,-10.22 19.42,-16.83 39.31,-48.02 59.69,-109.16 56.48,-169.46 -0.29,-5.48 -1.3,-11.8 -6.36,-14.62 -3.01,-1.69 -6.76,-1.66 -10.26,-1.34 -15.65,1.39 -30.7,7.36 -46.42,7.33 -12.53,-0.03 -25.98,-3.73 -37.02,1.79 z" inkscape:connector-curvature="0" />
    </clipPath>
    <radialGradient id="radialGradient3454" spreadMethod="pad" gradientTransform="matrix(92.1957,0,0,-92.1957,3742.8,1650.1)" gradientUnits="userSpaceOnUse" r="1" cy="0" cx="0" fy="0" fx="0">
      <stop id="stop3446" offset="0" style="stop-opacity:1;stop-color:#e32445" />
      <stop id="stop3448" offset="0.491979" style="stop-opacity:1;stop-color:#e01c38" />
      <stop id="stop3450" offset="0.652406" style="stop-opacity:1;stop-color:#dc1b32" />
      <stop id="stop3452" offset="1" style="stop-opacity:1;stop-color:#c8212b" />
    </radialGradient>
    <clipPath id="clipPath3422" clipPathUnits="userSpaceOnUse">
      <path id="path3420" d="m 3634.59,1556.85 c 10.57,5.27 15.01,17.37 15.53,28.52 0.53,11.15 -1.88,22.34 -0.72,33.44 1.43,13.66 8.19,26.58 8.63,40.3 0.58,17.84 -9.58,34.66 -10.31,52.5 -0.44,10.6 2.26,22.14 -3.72,31.17 -6.61,9.99 -22.27,12.39 -33.57,7.2 -8.01,-3.67 -14.01,-10.22 -19.42,-16.83 -39.3,-48.02 -59.68,-109.16 -56.48,-169.46 0.3,-5.48 1.31,-11.8 6.36,-14.62 3.02,-1.69 6.76,-1.66 10.26,-1.34 15.65,1.39 30.7,7.36 46.42,7.33 12.53,-0.03 25.98,-3.73 37.02,1.79 z" inkscape:connector-curvature="0" />
    </clipPath>
    <radialGradient id="radialGradient3432" spreadMethod="pad" gradientTransform="matrix(93.207,0,0,-93.207,3602.87,1644.71)" gradientUnits="userSpaceOnUse" r="1" cy="0" cx="0" fy="0" fx="0">
      <stop id="stop3424" offset="0" style="stop-opacity:1;stop-color:#e32445" />
      <stop id="stop3426" offset="0.491979" style="stop-opacity:1;stop-color:#e01c38" />
      <stop id="stop3428" offset="0.652406" style="stop-opacity:1;stop-color:#dc1b32" />
      <stop id="stop3430" offset="1" style="stop-opacity:1;stop-color:#c8212b" />
    </radialGradient>
    <clipPath id="clipPath3406" clipPathUnits="userSpaceOnUse">
      <path id="path3404" d="m 3713.82,1933.3 c 0,-20.71 -19.86,-52.82 -44.35,-52.82 -24.5,0 -44.35,32.11 -44.35,52.82 0,20.71 19.85,22.18 44.35,22.18 24.49,0 44.35,-1.47 44.35,-22.18 z" inkscape:connector-curvature="0" />
    </clipPath>
    <radialGradient id="radialGradient3412" spreadMethod="pad" gradientTransform="matrix(41.0681,0,0,-41.0681,3670.72,1922.15)" gradientUnits="userSpaceOnUse" r="1" cy="0" cx="0" fy="0" fx="0">
      <stop id="stop3408" offset="0" style="stop-opacity:1;stop-color:#f78f84" />
      <stop id="stop3410" offset="1" style="stop-opacity:1;stop-color:#f5796d" />
    </radialGradient>
  </defs>
  <sodipodi:namedview id="base" pagecolor="#ffffff" bordercolor="#666666" borderopacity="1.0" inkscape:pageopacity="0.0" inkscape:pageshadow="2" inkscape:zoom="0.95765472" inkscape:cx="43.921769" inkscape:cy="267.61905" inkscape:document-units="px" inkscape:current-layer="layer1" showgrid="false" units="px" />
  <metadata id="metadata78819">
    <rdf:RDF>
      <cc:Work rdf:about="">
        <dc:format>image/svg+xml</dc:format>
        <dc:type rdf:resource="http://purl.org/dc/dcmitype/StillImage" />
        <dc:title></dc:title>
      </cc:Work>
    </rdf:RDF>
  </metadata>
  <g inkscape:label="Layer 1" inkscape:groupmode="layer" id="layer1" transform="translate(0,-280.33124)">
    <g id="g3400" transform="matrix(0.03527778,0,0,-0.03527778,-124.67883,351.59438)">
      <g clip-path="url(#clipPath3406)" id="g3402">
        <path id="path3414" style="fill:url(#radialGradient3412)" d="m 3713.82,1933.3 c 0,-20.71 -19.86,-52.82 -44.35,-52.82 -24.5,0 -44.35,32.11 -44.35,52.82 0,20.71 19.85,22.18 44.35,22.18 24.49,0 44.35,-1.47 44.35,-22.18" inkscape:connector-curvature="0" />
      </g>
    </g>
    <g id="g3416" transform="matrix(0.03527778,0,0,-0.03527778,-124.67883,351.59438)">
      <g clip-path="url(#clipPath3422)" id="g3418">
        <path id="path3434" style="fill:url(#radialGradient3432)" d="m 3634.59,1556.85 c 10.57,5.27 15.01,17.37 15.53,28.52 0.53,11.15 -1.88,22.34 -0.72,33.44 1.43,13.66 8.19,26.58 8.63,40.3 0.58,17.84 -9.58,34.66 -10.31,52.5 -0.44,10.6 2.26,22.14 -3.72,31.17 -6.61,9.99 -22.27,12.39 -33.57,7.2 -8.01,-3.67 -14.01,-10.22 -19.42,-16.83 -39.3,-48.02 -59.68,-109.16 -56.48,-169.46 0.3,-5.48 1.31,-11.8 6.36,-14.62 3.02,-1.69 6.76,-1.66 10.26,-1.34 15.65,1.39 30.7,7.36 46.42,7.33 12.53,-0.03 25.98,-3.73 37.02,1.79" inkscape:connector-curvature="0" />
      </g>
    </g>
    <path id="path3436" style="fill:#8a181d;stroke-width:0.03527778" d="m 4.2932081,293.54198 c 0,0 0.06103,-0.20108 0.05362,-0.25435 -0.174625,0.21166 -0.389819,0.54363 -0.48648,0.79481 -0.09102,0.23706 -0.144639,0.48648 -0.246945,0.71931 -0.159455,0.36407 -0.43815,0.68227 -0.789517,0.90064 -0.230716,0.14358 -0.48895,0.24342 -0.745419,0.34255 -0.289631,0.11218 -0.579261,0.22401 -0.869245,0.3362 -0.242005,0.0935 -0.487186,0.18803 -0.746477,0.22436 -0.135114,0.019 -0.291748,0.0349 -0.411692,0.0875 0.03104,0.10513 0.08608,0.19862 0.184855,0.25365 0.106539,0.0596 0.238478,0.0586 0.36195,0.0473 0.552098,-0.049 1.083028,-0.25964 1.637595,-0.25858 0.442031,0.001 0.916517,0.13158 1.305983,-0.0632 0.372887,-0.18592 0.52952,-0.61278 0.547864,-1.00612 0.0187,-0.39335 -0.06632,-0.78811 -0.0254,-1.17969 0.03351,-0.32103 0.150284,-0.63042 0.229306,-0.94439" inkscape:connector-curvature="0" />
    <g id="g3438" transform="matrix(0.03527778,0,0,-0.03527778,-124.67883,351.59438)">
      <g clip-path="url(#clipPath3444)" id="g3440">
        <path id="path3456" style="fill:url(#radialGradient3454)" d="m 3704.34,1556.85 c -10.57,5.27 -15,17.37 -15.53,28.52 -0.53,11.15 1.88,22.34 0.72,33.44 -1.43,13.66 -8.19,26.58 -8.63,40.3 -0.57,17.84 9.58,34.66 10.31,52.5 0.44,10.6 -2.26,22.14 3.72,31.17 6.61,9.99 22.27,12.39 33.57,7.2 8.01,-3.67 14.01,-10.22 19.42,-16.83 39.31,-48.02 59.69,-109.16 56.48,-169.46 -0.29,-5.48 -1.3,-11.8 -6.36,-14.62 -3.01,-1.69 -6.76,-1.66 -10.26,-1.34 -15.65,1.39 -30.7,7.36 -46.42,7.33 -12.53,-0.03 -25.98,-3.73 -37.02,1.79" inkscape:connector-curvature="0" />
      </g>
    </g>
    <path id="path3458" style="fill:#8a181d;stroke-width:0.03527778" d="m 5.2502941,293.54198 c 0,0 -0.06103,-0.20108 -0.05327,-0.25435 0.174272,0.21166 0.389819,0.54363 0.486127,0.79481 0.09137,0.23706 0.144992,0.48648 0.246945,0.71931 0.159455,0.36407 0.438503,0.68227 0.789517,0.90064 0.231069,0.14358 0.48895,0.24342 0.745419,0.34255 0.289631,0.11218 0.579614,0.22401 0.869245,0.3362 0.242005,0.0935 0.487186,0.18803 0.746477,0.22436 0.135114,0.019 0.291748,0.0349 0.412045,0.0875 -0.0314,0.10513 -0.08608,0.19862 -0.185208,0.25365 -0.106187,0.0596 -0.238478,0.0586 -0.36195,0.0473 -0.552098,-0.049 -1.083028,-0.25964 -1.637595,-0.25858 -0.442031,0.001 -0.916517,0.13158 -1.305983,-0.0632 -0.372887,-0.18592 -0.529167,-0.61278 -0.547864,-1.00612 -0.0187,-0.39335 0.06632,-0.78811 0.0254,-1.17969 -0.03351,-0.32103 -0.150284,-0.63042 -0.229306,-0.94439" inkscape:connector-curvature="0" />
    <path id="path3460" style="fill:#71131f;stroke-width:0.03527778" d="m 7.5535801,295.01377 c -0.123825,-0.084 -0.250472,-0.17921 -0.300214,-0.3115 0.385939,0.17427 0.75177,0.38523 1.089025,0.62829 -0.02893,-0.2674 -0.319616,-0.43991 -0.584905,-0.56197 -0.265642,-0.12206 -0.565503,-0.26317 -0.645231,-0.52211 0.126648,0.0984 0.278343,0.17004 0.440268,0.20814 -0.1397,-0.1016 -0.288573,-0.21696 -0.31997,-0.37606 0.220133,0.14887 0.545041,0.15733 0.773995,0.0197 -0.304095,-0.0646 -0.607837,-0.12947 -0.911579,-0.19403 -0.07514,-0.0159 -0.4445,-0.048 -0.449792,-0.11712 -0.0025,-0.0332 0.01729,-0.0639 0.03845,-0.091 0.06809,-0.0868 0.159456,-0.15804 0.264231,-0.20637 -0.166157,-0.002 -0.341489,0.0935 -0.487892,0.0229 -0.07303,-0.0349 -0.116769,-0.10336 -0.156986,-0.16863 -0.06279,-0.1016 -0.125942,-0.20355 -0.188736,-0.3055 -0.02434,-0.0392 -0.04904,-0.0868 -0.02716,-0.12736 l 0.05292,-0.0459 c 0.146755,-0.0811 0.337961,-0.072 0.497769,-0.0145 0.159809,0.0579 0.295628,0.15804 0.428272,0.25682 0.05856,0.0437 0.118887,0.0892 0.154164,0.15028 0.08326,0.14394 0.0014,0.31715 -0.07973,0.46214 0.147461,-0.0896 0.225777,-0.26246 0.189794,-0.4191 0.144639,0.0243 0.282575,0.0797 0.399344,0.15981 0.02011,-0.0917 -0.04339,-0.18415 -0.125588,-0.2413 -0.0822,-0.0575 -0.182034,-0.0896 -0.273756,-0.1337 -0.151694,-0.0727 -0.282928,-0.17992 -0.378178,-0.30903 0.27305,0.0229 0.5461,0.0459 0.81915,0.0684 -0.137936,-0.13052 -0.340078,-0.20425 -0.540103,-0.19649 -0.09137,0.004 -0.182738,0.0233 -0.273755,0.013 -0.09066,-0.0106 -0.185561,-0.0628 -0.19932,-0.14393 0.243417,-0.0571 0.496006,-0.0829 0.747537,-0.0773 -0.242712,-0.0928 -0.523523,-0.10266 -0.773642,-0.0268 0.153811,-0.19756 0.307269,-0.39511 0.46108,-0.59267 -0.160161,-0.0307 -0.336197,0.0787 -0.361244,0.22437 -0.06244,0.0229 -0.134056,-0.0247 -0.155928,-0.0822 -0.02152,-0.0579 -0.0081,-0.12065 0.0018,-0.18062 0.04833,-0.28822 0.01693,-0.58667 -0.09031,-0.86149 -0.05292,0.19439 -0.05821,0.39935 -0.01517,0.59585 -0.222955,-0.15381 -0.445558,-0.30798 -0.668513,-0.46179 0.05856,0.23495 0.445205,0.35172 0.417688,0.59126 -0.231069,0.004 -0.462844,-0.0145 -0.689327,-0.0547 0.05644,0.11006 0.223661,0.11324 0.356658,0.1337 0.189442,0.0293 0.369711,0.13688 0.445558,0.29633 0.07549,0.15946 0.02575,0.36724 -0.134055,0.4639 -0.117122,0.0709 -0.267759,0.0752 -0.408517,0.0688 -0.105128,-0.005 -0.210961,-0.0152 -0.313267,-0.0371 -0.262466,-0.10265 -0.463902,-0.36018 -0.552802,-0.60536 l -0.02787,-0.0861 h -0.588434 l -0.02787,0.0861 c -0.08678,0.23953 -0.266347,0.49248 -0.518936,0.59831 -0.112889,0.0272 -0.230364,0.0388 -0.347133,0.0441 -0.140758,0.006 -0.291395,0.002 -0.408517,-0.0688 -0.159808,-0.0967 -0.20955,-0.30444 -0.134055,-0.4639 0.07585,-0.15945 0.256116,-0.26705 0.445558,-0.29633 0.132997,-0.0205 0.300214,-0.0236 0.356658,-0.1337 -0.226836,0.0402 -0.458258,0.0586 -0.689328,0.0547 -0.02752,-0.23954 0.359128,-0.35631 0.417689,-0.59126 -0.222955,0.15381 -0.445558,0.30798 -0.668514,0.46179 0.04304,-0.1965 0.03775,-0.40146 -0.01517,-0.59585 -0.107244,0.27482 -0.138642,0.57327 -0.09031,0.86149 0.0099,0.06 0.02328,0.12276 0.0018,0.18062 -0.02187,0.0575 -0.09349,0.10513 -0.155928,0.0822 -0.02505,-0.1457 -0.201083,-0.25506 -0.361244,-0.22437 0.153811,0.19756 0.307269,0.39511 0.46108,0.59267 -0.250119,-0.0759 -0.53093,-0.066 -0.773642,0.0268 0.251531,-0.006 0.50412,0.0201 0.747537,0.0773 -0.01376,0.0811 -0.108656,0.13335 -0.19932,0.14393 -0.09102,0.0102 -0.182386,-0.009 -0.273755,-0.013 -0.200025,-0.008 -0.402167,0.066 -0.540103,0.19649 0.27305,-0.0226 0.5461,-0.0455 0.81915,-0.0684 -0.09525,0.12911 -0.226484,0.23636 -0.378178,0.30903 -0.09172,0.0441 -0.191558,0.0762 -0.273756,0.1337 -0.0822,0.0572 -0.145697,0.14958 -0.125588,0.2413 0.116769,-0.0801 0.254705,-0.13546 0.399344,-0.15981 -0.03598,0.15664 0.04233,0.3295 0.189794,0.4191 -0.08114,-0.14499 -0.162983,-0.3182 -0.07973,-0.46214 0.03528,-0.061 0.0956,-0.10653 0.154164,-0.15028 0.132644,-0.0988 0.268111,-0.19897 0.428272,-0.25682 0.159808,-0.0575 0.350661,-0.0667 0.497769,0.0145 l 0.05292,0.0459 c 0.02187,0.0406 -0.0028,0.0882 -0.02716,0.12736 -0.06279,0.10195 -0.125942,0.2039 -0.188736,0.3055 -0.04022,0.0653 -0.08396,0.13371 -0.156986,0.16863 -0.146403,0.0706 -0.321734,-0.0247 -0.487892,-0.0229 0.104775,0.0483 0.196145,0.11959 0.264231,0.20637 0.02117,0.0272 0.04092,0.0579 0.03845,0.091 -0.0053,0.0692 -0.37465,0.10125 -0.449791,0.11712 -0.303742,0.0646 -0.607836,0.12947 -0.911578,0.19403 0.228953,0.13758 0.553861,0.12912 0.773994,-0.0197 -0.0314,0.1591 -0.180269,0.27446 -0.319969,0.37606 0.161925,-0.0381 0.313619,-0.10972 0.440267,-0.20814 -0.07973,0.25894 -0.379589,0.40005 -0.645231,0.52211 -0.265289,0.12206 -0.555978,0.29457 -0.584906,0.56197 0.337256,-0.24306 0.703087,-0.45402 1.089026,-0.62829 -0.04974,0.13229 -0.176389,0.22754 -0.300214,0.3115 -0.123825,0.0836 -0.255764,0.16863 -0.325614,0.29351 -0.06985,0.12453 -0.05115,0.30233 0.08326,0.37218 -0.05891,-0.12947 0.05186,-0.2674 0.155575,-0.37183 0.163336,-0.16474 0.326673,-0.32949 0.490009,-0.49424 -0.147814,0.21555 -0.30092,0.47131 -0.2032,0.70873 0.05292,-0.28116 0.318911,-0.49671 0.390172,-0.77434 0.0254,-0.10019 0.02469,-0.20462 0.05009,-0.3048 0.02505,-0.10019 0.08431,-0.20215 0.189089,-0.24342 -0.03775,0.40428 -0.133703,0.80433 -0.285044,1.18639 0.08502,-0.15205 0.173919,-0.30868 0.32138,-0.41522 0.08114,0.36336 -0.301272,0.72531 -0.18803,1.08162 0.07479,-0.14288 0.16898,-0.42369 0.2794,-0.5461 0.05186,0.0596 0.17533,0.35066 0.210961,0.35031 -0.02434,-0.0642 -0.04904,-0.12806 -0.07338,-0.19227 -0.0635,-0.16757 -0.127353,-0.33655 -0.151342,-0.51223 0.09948,0.14428 0.274109,0.24447 0.461434,0.26458 -0.300567,-0.19332 -0.329495,-0.57855 -0.3302,-0.91087 -3.44e-4,-0.18203 -0.0011,-0.36371 -0.0014,-0.54575 -3.44e-4,-0.19403 0.280105,-0.39723 0.381705,-0.56868 0.138995,-0.23495 0.611364,-0.44732 0.875242,-0.56832 0.152753,-0.0854 0.480483,-0.44309 0.519994,-0.51188 0.03951,0.0688 0.367242,0.42651 0.519995,0.51188 0.256469,0.11712 0.740833,0.34114 0.875242,0.56832 0.1016,0.17145 0.382058,0.37465 0.381705,0.56868 -7.14e-4,0.18204 -0.0011,0.36372 -0.0014,0.54575 -7.14e-4,0.33232 -0.02963,0.71755 -0.3302,0.91087 0.187325,-0.0201 0.36195,-0.1203 0.461433,-0.26458 -0.02399,0.17568 -0.08784,0.34466 -0.151341,0.51223 -0.0247,0.0642 -0.04904,0.12806 -0.07338,0.19227 0.03563,3.4e-4 0.159103,-0.29069 0.210961,-0.35031 0.11042,0.12241 0.204611,0.40322 0.2794,0.5461 0.113242,-0.35631 -0.269169,-0.71826 -0.18803,-1.08162 0.147461,0.10654 0.236361,0.26317 0.321027,0.41522 -0.150988,-0.38206 -0.246944,-0.78211 -0.284691,-1.18639 0.104422,0.0413 0.164041,0.14323 0.189089,0.24342 0.0254,0.10018 0.02469,0.20461 0.05009,0.3048 0.07126,0.27763 0.337256,0.49318 0.390172,0.77434 0.09772,-0.23742 -0.05539,-0.49318 -0.2032,-0.70873 0.163336,0.16475 0.326673,0.3295 0.490009,0.49424 0.103364,0.10443 0.214489,0.24236 0.155575,0.37183 0.134408,-0.0699 0.153105,-0.24765 0.08326,-0.37218 -0.06985,-0.12488 -0.201789,-0.2099 -0.325614,-0.29351" inkscape:connector-curvature="0" />
    <path id="path3462" style="fill:#ec4e50;stroke-width:0.03527778" d="m 4.0603751,285.30779 c 0.125588,0.27623 0.222955,0.56551 0.252236,0.8629 0.01517,0.15698 0.01658,0.32808 0.125941,0.4512 l 0.03881,0.0367 c 0.06244,0.33549 0.05009,3.0293 0.03739,3.37044 -0.01341,0.3489 -0.02646,0.69744 -0.03951,1.04634 -0.01023,0.27587 -0.02152,0.55668 -0.116769,0.81915 -0.02258,0.0621 -0.05115,0.12488 -0.08502,0.18591 0,0 0.233892,0.0801 0.416631,0.0801 0.152753,0 0.3048,-0.0346 0.443442,-0.084 -0.03422,-0.06 -0.0628,-0.12136 -0.08502,-0.18204 -0.09525,-0.26246 -0.106539,-0.54328 -0.116769,-0.81915 -0.01305,-0.3489 -0.02646,-0.69744 -0.03951,-1.04634 -0.0127,-0.34113 -0.02505,-3.03494 0.03739,-3.37044 l 0.03881,-0.0367 c 0.109361,-0.12312 0.110772,-0.29422 0.125941,-0.4512 0.02928,-0.29739 0.126295,-0.58667 0.252236,-0.8629 0.03598,-0.079 0.07444,-0.15839 0.08467,-0.24306 0.01023,-0.085 -0.01305,-0.1778 -0.08431,-0.23424 -0.213078,-0.0561 -0.4318,0.10653 -0.643467,0.14569 -0.211666,-0.0392 -0.430388,-0.20179 -0.643819,-0.14569 -0.07091,0.0564 -0.09419,0.14922 -0.08396,0.23424 0.01023,0.0847 0.04868,0.16404 0.08467,0.24306" inkscape:connector-curvature="0" />
    <path id="path3464" style="fill:#f1797e;stroke-width:0.03527778" d="m 5.0340411,291.95236 h -0.661105 c -0.05115,0 -0.09102,-0.0868 -0.08925,-0.19297 l 3.44e-4,-0.004 c 0.0018,-0.10548 0.04445,-0.19014 0.09454,-0.19014 h 0.649817 c 0.05009,0 0.09278,0.0847 0.09454,0.19014 l 3.44e-4,0.004 c 0.0018,0.10619 -0.0381,0.19297 -0.08925,0.19297" inkscape:connector-curvature="0" />
    <path id="path3466" style="fill:#f1797e;stroke-width:0.03527778" d="m 5.0252221,291.35829 h -0.643467 c -0.04974,0 -0.0889,-0.0822 -0.08678,-0.1831 v -0.004 c 0.0018,-0.0998 0.04304,-0.18027 0.09243,-0.18027 h 0.632177 c 0.04904,0 0.09066,0.0804 0.09243,0.18027 v 0.004 c 0.0021,0.1009 -0.03704,0.1831 -0.08678,0.1831" inkscape:connector-curvature="0" />
    <path id="path3468" style="fill:#f1797e;stroke-width:0.03527778" d="m 5.0167551,290.79525 h -0.626533 c -0.04868,0 -0.08678,-0.0783 -0.08467,-0.17392 v -0.004 c 0.0018,-0.0949 0.04198,-0.1711 0.08961,-0.1711 h 0.616655 c 0.04763,0 0.08784,0.0762 0.08961,0.1711 v 0.004 c 0.0021,0.0956 -0.03598,0.17392 -0.08467,0.17392" inkscape:connector-curvature="0" />
    <path id="path3470" style="fill:#f1797e;stroke-width:0.03527778" d="m 5.0089941,290.26009 h -0.611011 c -0.04727,0 -0.08431,-0.0741 -0.08255,-0.1651 v -0.003 c 0.0018,-0.09 0.04092,-0.16263 0.08749,-0.16263 h 0.601133 c 0.04657,0 0.08572,0.0727 0.08749,0.16263 v 0.003 c 0.0018,0.091 -0.03528,0.1651 -0.08255,0.1651" inkscape:connector-curvature="0" />
    <path id="path3472" style="fill:#f1797e;stroke-width:0.03527778" d="m 5.0012331,289.75174 h -0.595489 c -0.04621,0 -0.08255,-0.0706 -0.08079,-0.15699 v -0.003 c 0.0018,-0.0857 0.03986,-0.15486 0.08537,-0.15486 h 0.586317 c 0.04551,0 0.08361,0.0691 0.08537,0.15486 v 0.003 c 0.0018,0.0864 -0.03457,0.15699 -0.08079,0.15699" inkscape:connector-curvature="0" />
    <path id="path3474" style="fill:#f1797e;stroke-width:0.03527778" d="m 4.9941771,289.26772 h -0.581377 c -0.04516,0 -0.08043,-0.067 -0.07902,-0.14957 l 3.44e-4,-0.003 c 0.0014,-0.0815 0.03881,-0.14711 0.08326,-0.14711 h 0.572206 c 0.04445,0 0.08185,0.0656 0.08326,0.14711 l 3.44e-4,0.003 c 0.0014,0.0825 -0.03387,0.14957 -0.07902,0.14957" inkscape:connector-curvature="0" />
    <path id="path3476" style="fill:#f1797e;stroke-width:0.03527778" d="m 4.9874751,288.80664 h -0.567973 c -0.0441,0 -0.07832,-0.0642 -0.07691,-0.14287 v -0.003 c 0.0014,-0.078 0.03775,-0.14076 0.08114,-0.14076 h 0.559505 c 0.04339,0 0.07973,0.0628 0.08114,0.14076 v 0.003 c 0.0014,0.0787 -0.03281,0.14287 -0.07691,0.14287" inkscape:connector-curvature="0" />
    <path id="path3478" style="fill:#f1797e;stroke-width:0.03527778" d="m 4.9807721,288.36673 h -0.554567 c -0.04304,0 -0.0769,-0.0614 -0.07549,-0.13652 v -0.003 c 0.0014,-0.0744 0.03704,-0.13405 0.07937,-0.13405 h 0.546805 c 0.04233,0 0.07796,0.0596 0.07937,0.13405 v 0.003 c 0.0014,0.0751 -0.03245,0.13652 -0.07549,0.13652" inkscape:connector-curvature="0" />
    <path id="path3480" style="fill:#f1797e;stroke-width:0.03527778" d="m 4.9747751,287.94622 h -0.542573 c -0.04198,0 -0.07479,-0.0586 -0.07373,-0.13018 l 3.44e-4,-0.003 c 0.0011,-0.0709 0.03598,-0.12841 0.07726,-0.12841 h 0.534811 c 0.04127,0 0.0762,0.0575 0.07726,0.12841 v 0.003 c 0.0014,0.0716 -0.0314,0.13018 -0.07338,0.13018" inkscape:connector-curvature="0" />
    <path id="path3482" style="fill:#f1797e;stroke-width:0.03527778" d="m 4.9687771,287.54441 h -0.530577 c -0.04092,0 -0.07338,-0.0561 -0.07197,-0.12454 v -0.002 c 0.0014,-0.0681 0.03528,-0.12312 0.07585,-0.12312 h 0.522817 c 0.04057,0 0.07444,0.055 0.07585,0.12312 v 0.002 c 0.0014,0.0684 -0.03104,0.12454 -0.07197,0.12454" inkscape:connector-curvature="0" />
    <path id="path3484" style="fill:#f1797e;stroke-width:0.03527778" d="m 4.9631331,287.15988 h -0.519289 c -0.04022,0 -0.07161,-0.0536 -0.07056,-0.11924 v -0.002 c 0.0014,-0.0653 0.03457,-0.11783 0.07408,-0.11783 h 0.51188 c 0.03986,0 0.07303,0.0526 0.07444,0.11783 v 0.002 c 0.0011,0.0656 -0.03034,0.11924 -0.07056,0.11924" inkscape:connector-curvature="0" />
    <g id="g3486" transform="matrix(0.03527778,0,0,-0.03527778,-124.67883,351.59438)">
      <g clip-path="url(#clipPath3492)" id="g3488">
        <path id="path3502" style="fill:url(#radialGradient3500)" d="m 3666.81,1987.65 c -1.29,-1.74 -0.4,-4.26 -1.12,-6.29 -0.63,-1.78 -2.62,-2.96 -4.49,-2.67 -1.4,0.22 -2.57,1.13 -3.67,2.01 -2.29,1.83 -4.68,3.79 -5.7,6.53 -0.37,1.01 -0.56,2.11 -1.18,2.99 -1.3,1.86 -3.91,2.06 -6.16,2.34 -2.18,0.28 -4.33,0.81 -6.39,1.57 l -1.73,1.14 0.43,2.91 2.33,2.12 c 2.58,2.5 3.05,6.62 5.62,9.14 2.58,2.53 6.57,2.79 10.2,2.87 1.37,0.03 2.77,0.05 4.06,0.54 1.68,0.64 3.3,2.06 5.03,1.56 1.44,-0.41 2.2,-2.05 2.28,-3.55 0.08,-1.5 -0.32,-2.99 -0.33,-4.49 0,-2.05 0.73,-4.02 1.27,-6 0.81,-2.96 1.21,-6.02 1.18,-9.09 l -0.48,-2.29 -1.15,-1.34" inkscape:connector-curvature="0" />
      </g>
    </g>
    <g id="g3504" transform="matrix(0.03527778,0,0,-0.03527778,-124.67883,351.59438)">
      <g clip-path="url(#clipPath3510)" id="g3506">
        <path id="path3520" style="fill:url(#radialGradient3518)" d="m 3632.72,1952.15 c -1.14,-0.97 -1.59,-2.57 -1.47,-4.06 0.12,-1.49 0.74,-2.89 1.42,-4.21 1.08,-2.1 2.35,-4.1 3.76,-5.99 1.38,-1.85 3.01,-3.68 5.21,-4.37 2.2,-0.68 5.05,0.27 5.68,2.48 l 0.44,2.62 2.06,1.06 0.62,-0.76 c 1.73,-2.82 5.21,-4.35 8.51,-4.04 3.29,0.31 6.3,2.34 8.11,5.12 1.8,2.77 2.44,6.21 2.09,9.5 -0.2,1.88 -0.71,3.73 -0.74,5.63 -0.03,1.54 0.27,3.07 0.42,4.61 0.16,1.73 0.13,3.48 0.1,5.22 -0.07,3.84 -0.14,7.68 -0.21,11.52 -2.3,0.62 -4.59,1.23 -6.88,1.84 -1.6,0.43 -3.53,0.79 -4.75,-0.34 l -1.19,-2.25 c -1.41,-4.04 -3.47,-7.86 -6.09,-11.25 -1.1,-1.41 -2.34,-2.79 -3.97,-3.53 -1.19,-0.54 -2.53,-0.71 -3.65,-1.37 -2.22,-1.29 -3.13,-4.17 -5.34,-5.5 -1.31,-0.79 -2.96,-0.95 -4.13,-1.93" inkscape:connector-curvature="0" />
      </g>
    </g>
    <g id="g3522" transform="matrix(0.03527778,0,0,-0.03527778,-124.67883,351.59438)">
      <g clip-path="url(#clipPath3528)" id="g3524">
        <path id="path3538" style="fill:url(#radialGradient3536)" d="m 3672.13,1987.65 c 1.28,-1.74 0.39,-4.26 1.11,-6.29 0.64,-1.78 2.62,-2.96 4.49,-2.67 1.4,0.22 2.57,1.13 3.68,2.01 2.28,1.83 4.67,3.79 5.69,6.53 0.38,1.01 0.56,2.11 1.18,2.99 1.3,1.86 3.91,2.06 6.16,2.34 2.19,0.28 4.34,0.81 6.4,1.57 l 1.73,1.14 -0.44,2.91 -2.32,2.12 c -2.59,2.5 -3.05,6.62 -5.62,9.14 -2.59,2.53 -6.58,2.79 -10.2,2.87 -1.38,0.03 -2.78,0.05 -4.07,0.54 -1.68,0.64 -3.3,2.06 -5.03,1.56 -1.44,-0.41 -2.2,-2.05 -2.28,-3.55 -0.08,-1.5 0.32,-2.99 0.33,-4.49 0.01,-2.05 -0.73,-4.02 -1.27,-6 -0.81,-2.96 -1.21,-6.02 -1.18,-9.09 l 0.48,-2.29 1.16,-1.34" inkscape:connector-curvature="0" />
      </g>
    </g>
    <g id="g3540" transform="matrix(0.03527778,0,0,-0.03527778,-124.67883,351.59438)">
      <g clip-path="url(#clipPath3546)" id="g3542">
        <path id="path3556" style="fill:url(#radialGradient3554)" d="m 3706.21,1952.15 c 1.14,-0.97 1.59,-2.57 1.47,-4.06 -0.12,-1.49 -0.74,-2.89 -1.42,-4.21 -1.08,-2.1 -2.35,-4.1 -3.76,-5.99 -1.37,-1.85 -3.01,-3.68 -5.21,-4.37 -2.2,-0.68 -5.05,0.27 -5.68,2.48 l -0.44,2.62 -2.06,1.06 -0.62,-0.76 c -1.73,-2.82 -5.21,-4.35 -8.5,-4.04 -3.3,0.31 -6.31,2.34 -8.11,5.12 -1.81,2.77 -2.45,6.21 -2.1,9.5 0.2,1.88 0.71,3.73 0.74,5.63 0.03,1.54 -0.27,3.07 -0.41,4.61 -0.17,1.73 -0.14,3.48 -0.1,5.22 0.07,3.84 0.13,7.68 0.2,11.52 2.3,0.62 4.59,1.23 6.88,1.84 1.61,0.43 3.53,0.79 4.75,-0.34 l 1.19,-2.25 c 1.41,-4.04 3.47,-7.86 6.1,-11.25 1.09,-1.41 2.33,-2.79 3.97,-3.53 1.18,-0.54 2.52,-0.71 3.64,-1.37 2.23,-1.29 3.14,-4.17 5.34,-5.5 1.31,-0.79 2.97,-0.95 4.13,-1.93" inkscape:connector-curvature="0" />
      </g>
    </g>
  </g>
</svg>
