<?xml version="1.0" encoding="UTF-8" standalone="no"?>
<!-- Created with Inkscape (http://www.inkscape.org/) -->

<svg
   xmlns:dc="http://purl.org/dc/elements/1.1/"
   xmlns:cc="http://creativecommons.org/ns#"
   xmlns:rdf="http://www.w3.org/1999/02/22-rdf-syntax-ns#"
   xmlns:svg="http://www.w3.org/2000/svg"
   xmlns="http://www.w3.org/2000/svg"
   xmlns:sodipodi="http://sodipodi.sourceforge.net/DTD/sodipodi-0.dtd"
   xmlns:inkscape="http://www.inkscape.org/namespaces/inkscape"
   width="22"
   height="61"
   viewBox="0 0 5.8208332 16.139584"
   version="1.1"
   id="svg20551"
   inkscape:version="0.92.4 (5da689c313, 2019-01-14)"
   sodipodi:docname="stomach.svg">
  <defs
     id="defs20545">
    <clipPath
       clipPathUnits="userSpaceOnUse"
       id="clipPath3690">
      <path
         inkscape:connector-curvature="0"
         d="m 334.781,3554.57 c -3.418,3.35 -6.101,7.36 -7.652,11.93 -2.555,7.52 -1.688,15.6 1.422,22.94 2.578,6.1 6.703,11.67 11.703,15.98 6.711,5.79 14.699,9.7 23.129,12.57 0.715,0.25 1.43,0.48 2.144,0.71 4.719,1.51 9.555,2.71 14.36,3.78 6.461,1.42 13.031,2.65 19.082,5.33 4.793,2.13 9.297,5.32 12.293,9.56 0.781,1.11 1.457,2.29 2.011,3.54 4.719,10.7 -0.757,23.06 -7.32,32.73 -2.308,3.4 -4.773,6.69 -7.367,9.87 -1.793,2 -3.496,3.91 -5.106,5.87 -1.656,2.02 -3.207,4.1 -4.656,6.38 -2.652,4.17 -4.953,9.02 -6.871,15.45 -20.055,67.29 -7.375,287.71 -7.375,287.71 h 11.363 c -7.664,-158.61 -2.308,-262.66 10.758,-291.87 1.762,-3.93 4.949,-8.44 8.457,-12.66 2.032,-2.43 4.168,-4.77 6.199,-6.84 4.071,-4.12 7.719,-7.17 9.239,-7.77 1.414,-0.55 2.883,-0.79 4.371,-0.79 3.453,0 6.988,1.3 10.031,3.06 0.234,0.13 0.469,0.27 0.703,0.41 2.328,1.42 4.52,3.06 6.762,4.61 1.676,1.15 3.379,2.25 5.195,3.16 3.785,1.9 7.989,2.81 12.207,2.81 7.887,0 15.817,-3.18 21.133,-9.04 7.949,-8.75 9.582,-21.6 8.59,-33.39 -1.418,-16.92 -7.586,-33.53 -18.203,-46.79 -10.613,-13.25 -25.731,-23 -42.36,-26.42 -5.226,-1.08 -10.496,-1.53 -15.785,-1.53 -15.918,0 -32.004,4.13 -47.453,7.95 -2.433,0.6 -4.926,0.93 -7.418,0.93 -1.57,0 -3.144,-0.13 -4.699,-0.4 -2.137,-0.37 -4.406,-1.06 -5.969,-2.63 -1.855,-1.87 -2.414,-4.73 -2.086,-7.34 0.825,-6.53 6.567,-11.42 12.973,-13.29 0.73,-1.27 2.102,-2.12 3.672,-2.12 1.152,0 2.195,0.46 2.961,1.21 0.117,0 0.23,0 0.347,0 0.043,0 0.09,0 0.137,0 0.777,-0.9 1.926,-1.47 3.203,-1.47 1.586,0 2.965,0.87 3.696,2.16 2.168,0.39 4.328,0.93 6.472,1.51 -1.75,-1.56 -3.316,-3.28 -4.711,-5.12 -0.629,0.02 -1.273,0.03 -1.933,0.03 -2.629,0 -5.543,-0.17 -8.844,-0.55 -1.734,-0.2 -3.473,-0.4 -5.203,-0.57 -0.285,0.2 -0.563,0.4 -0.84,0.6 -1.301,-0.3 -2.578,-0.66 -3.844,-1.06 -6.347,-0.57 -12.664,-0.96 -18.918,-1.14"
         id="path3688" />
    </clipPath>
    <radialGradient
       fx="0"
       fy="0"
       cx="0"
       cy="0"
       r="1"
       gradientUnits="userSpaceOnUse"
       gradientTransform="matrix(66.4383,0,0,-66.4383,442.867,3647.98)"
       spreadMethod="pad"
       id="radialGradient3698">
      <stop
         style="stop-opacity:1;stop-color:#e14c65"
         offset="0"
         id="stop3692" />
      <stop
         style="stop-opacity:1;stop-color:#e14c65"
         offset="0.106952"
         id="stop3694" />
      <stop
         style="stop-opacity:1;stop-color:#d93c55"
         offset="1"
         id="stop3696" />
    </radialGradient>
    <clipPath
       clipPathUnits="userSpaceOnUse"
       id="clipPath3708">
      <path
         inkscape:connector-curvature="0"
         d="m 462.629,3667.61 c -5.234,7.71 -12.391,7.41 -19.816,7.01 -2.293,-0.13 -15.258,-3.7 -18.922,-2.21 -8.36,3.39 -13.641,11.26 -19.746,17.45 -6.348,6.43 -11.7,13.69 -14.344,22.55 -6.051,20.31 -7.653,51.37 -9.539,84.85 -4.367,77.44 2.527,201.66 2.527,201.66 h -5.242 c 0,0 -6.942,-125.2 -2.457,-202.92 1.902,-33 3.492,-63.53 9.469,-83.59 3.097,-10.39 9.296,-19.09 16.593,-26.82 3.118,-3.32 6.653,-6.48 9.442,-10.09 4.586,-5.94 8.57,-12.62 11.785,-19.39 6.75,-14.24 0.887,-28.1 -12.352,-35.92 -15.523,-9.17 -34.07,-6.42 -50.656,-12.42 -2.019,-0.73 -3.937,-1.52 -5.766,-2.38 -9.878,-4.7 -19.503,-13.66 -20.781,-24.53 -0.16,-1.37 -0.215,-2.74 -0.183,-4.1 2.941,0.2 5.976,-0.28 8.816,-1.37 -0.605,6.96 1.973,13.97 7.168,15.79 7.09,2.48 21.395,1.68 27.137,1.05 10.363,-1.14 20.445,-3.05 30.922,-2.77 19.664,0.52 36.5,4.58 47.039,22.77 8.418,14.54 19.601,39.61 8.906,55.38 z"
         id="path3706" />
    </clipPath>
    <radialGradient
       fx="0"
       fy="0"
       cx="0"
       cy="0"
       r="1"
       gradientUnits="userSpaceOnUse"
       gradientTransform="matrix(157.099,0,0,-157.099,399.823,3787.15)"
       spreadMethod="pad"
       id="radialGradient3714">
      <stop
         style="stop-opacity:1;stop-color:#f796b5"
         offset="0"
         id="stop3710" />
      <stop
         style="stop-opacity:1;stop-color:#f57c97"
         offset="1"
         id="stop3712" />
    </radialGradient>
  </defs>
  <sodipodi:namedview
     id="base"
     pagecolor="#ffffff"
     bordercolor="#666666"
     borderopacity="1.0"
     inkscape:pageopacity="0.0"
     inkscape:pageshadow="2"
     inkscape:zoom="1.1484375"
     inkscape:cx="103.07483"
     inkscape:cy="30.871357"
     inkscape:document-units="mm"
     inkscape:current-layer="layer1"
     showgrid="false"
     units="px"
     inkscape:window-width="1920"
     inkscape:window-height="1013"
     inkscape:window-x="-9"
     inkscape:window-y="-9"
     inkscape:window-maximized="1" />
  <metadata
     id="metadata20548">
    <rdf:RDF>
      <cc:Work
         rdf:about="">
        <dc:format>image/svg+xml</dc:format>
        <dc:type
           rdf:resource="http://purl.org/dc/dcmitype/StillImage" />
        <dc:title></dc:title>
      </cc:Work>
    </rdf:RDF>
  </metadata>
  <g
     inkscape:label="Layer 1"
     inkscape:groupmode="layer"
     id="layer1"
     transform="translate(0,-280.86041)">
    <g
       id="g3684"
       transform="matrix(0.03527778,0,0,-0.03527778,-11.487507,422.39734)">
      <g
         clip-path="url(#clipPath3690)"
         id="g3686">
        <path
           inkscape:connector-curvature="0"
           id="path3700"
           style="fill:url(#radialGradient3698);fill-opacity:1;fill-rule:nonzero;stroke:none"
           d="m 334.781,3554.57 c -3.418,3.35 -6.101,7.36 -7.652,11.93 -2.555,7.52 -1.688,15.6 1.422,22.94 2.578,6.1 6.703,11.67 11.703,15.98 6.711,5.79 14.699,9.7 23.129,12.57 0.715,0.25 1.43,0.48 2.144,0.71 4.719,1.51 9.555,2.71 14.36,3.78 6.461,1.42 13.031,2.65 19.082,5.33 4.793,2.13 9.297,5.32 12.293,9.56 0.781,1.11 1.457,2.29 2.011,3.54 4.719,10.7 -0.757,23.06 -7.32,32.73 -2.308,3.4 -4.773,6.69 -7.367,9.87 -1.793,2 -3.496,3.91 -5.106,5.87 -1.656,2.02 -3.207,4.1 -4.656,6.38 -2.652,4.17 -4.953,9.02 -6.871,15.45 -20.055,67.29 -7.375,287.71 -7.375,287.71 h 11.363 c -7.664,-158.61 -2.308,-262.66 10.758,-291.87 1.762,-3.93 4.949,-8.44 8.457,-12.66 2.032,-2.43 4.168,-4.77 6.199,-6.84 4.071,-4.12 7.719,-7.17 9.239,-7.77 1.414,-0.55 2.883,-0.79 4.371,-0.79 3.453,0 6.988,1.3 10.031,3.06 0.234,0.13 0.469,0.27 0.703,0.41 2.328,1.42 4.52,3.06 6.762,4.61 1.676,1.15 3.379,2.25 5.195,3.16 3.785,1.9 7.989,2.81 12.207,2.81 7.887,0 15.817,-3.18 21.133,-9.04 7.949,-8.75 9.582,-21.6 8.59,-33.39 -1.418,-16.92 -7.586,-33.53 -18.203,-46.79 -10.613,-13.25 -25.731,-23 -42.36,-26.42 -5.226,-1.08 -10.496,-1.53 -15.785,-1.53 -15.918,0 -32.004,4.13 -47.453,7.95 -2.433,0.6 -4.926,0.93 -7.418,0.93 -1.57,0 -3.144,-0.13 -4.699,-0.4 -2.137,-0.37 -4.406,-1.06 -5.969,-2.63 -1.855,-1.87 -2.414,-4.73 -2.086,-7.34 0.825,-6.53 6.567,-11.42 12.973,-13.29 0.73,-1.27 2.102,-2.12 3.672,-2.12 1.152,0 2.195,0.46 2.961,1.21 0.117,0 0.23,0 0.347,0 0.043,0 0.09,0 0.137,0 0.777,-0.9 1.926,-1.47 3.203,-1.47 1.586,0 2.965,0.87 3.696,2.16 2.168,0.39 4.328,0.93 6.472,1.51 -1.75,-1.56 -3.316,-3.28 -4.711,-5.12 -0.629,0.02 -1.273,0.03 -1.933,0.03 -2.629,0 -5.543,-0.17 -8.844,-0.55 -1.734,-0.2 -3.473,-0.4 -5.203,-0.57 -0.285,0.2 -0.563,0.4 -0.84,0.6 -1.301,-0.3 -2.578,-0.66 -3.844,-1.06 -6.347,-0.57 -12.664,-0.96 -18.918,-1.14" />
      </g>
    </g>
    <g
       id="g3702"
       transform="matrix(0.03527778,0,0,-0.03527778,-11.487507,422.39734)">
      <g
         clip-path="url(#clipPath3708)"
         id="g3704">
        <path
           inkscape:connector-curvature="0"
           id="path3716"
           style="fill:url(#radialGradient3714);fill-opacity:1;fill-rule:nonzero;stroke:none"
           d="m 462.629,3667.61 c -5.234,7.71 -12.391,7.41 -19.816,7.01 -2.293,-0.13 -15.258,-3.7 -18.922,-2.21 -8.36,3.39 -13.641,11.26 -19.746,17.45 -6.348,6.43 -11.7,13.69 -14.344,22.55 -6.051,20.31 -7.653,51.37 -9.539,84.85 -4.367,77.44 2.527,201.66 2.527,201.66 h -5.242 c 0,0 -6.942,-125.2 -2.457,-202.92 1.902,-33 3.492,-63.53 9.469,-83.59 3.097,-10.39 9.296,-19.09 16.593,-26.82 3.118,-3.32 6.653,-6.48 9.442,-10.09 4.586,-5.94 8.57,-12.62 11.785,-19.39 6.75,-14.24 0.887,-28.1 -12.352,-35.92 -15.523,-9.17 -34.07,-6.42 -50.656,-12.42 -2.019,-0.73 -3.937,-1.52 -5.766,-2.38 -9.878,-4.7 -19.503,-13.66 -20.781,-24.53 -0.16,-1.37 -0.215,-2.74 -0.183,-4.1 2.941,0.2 5.976,-0.28 8.816,-1.37 -0.605,6.96 1.973,13.97 7.168,15.79 7.09,2.48 21.395,1.68 27.137,1.05 10.363,-1.14 20.445,-3.05 30.922,-2.77 19.664,0.52 36.5,4.58 47.039,22.77 8.418,14.54 19.601,39.61 8.906,55.38" />
      </g>
    </g>
    <path
       inkscape:connector-curvature="0"
       id="path6124"
       style="fill:#c75575;fill-opacity:1;fill-rule:nonzero;stroke:none;stroke-width:0.03527778"
       d="m 2.5042595,281.2252 c 0,0.12771 -0.2583751,0.23143 -0.5769681,0.23143 -0.318735,0 -0.577145,-0.10372 -0.577145,-0.23143 0,-0.12805 0.25841,-0.23177 0.577145,-0.23177 0.318593,0 0.5769681,0.10372 0.5769681,0.23177" />
  </g>
</svg>
